<svg width="90" height="100" viewBox="0 0 90 100" fill="none" xmlns="http://www.w3.org/2000/svg">
<path d="M5 47V76" stroke="url(#paint0_linear_293_8927)" stroke-width="5" stroke-linecap="square" stroke-linejoin="round"/>
<path d="M12 48V80" stroke="url(#paint1_linear_293_8927)" stroke-width="5" stroke-linecap="square" stroke-linejoin="round"/>
<path d="M17 51V83" stroke="url(#paint2_linear_293_8927)" stroke-width="2" stroke-linecap="square" stroke-linejoin="round"/>
<path d="M24 55V85" stroke="url(#paint3_linear_293_8927)" stroke-width="4" stroke-linecap="square" stroke-linejoin="round"/>
<path d="M27 55V87" stroke="url(#paint4_linear_293_8927)" stroke-linecap="square" stroke-linejoin="round"/>
<path d="M33 60V89" stroke="url(#paint5_linear_293_8927)" stroke-width="6" stroke-linecap="square" stroke-linejoin="round"/>
<g filter="url(#filter0_f_293_8927)">
<path d="M82 71.3912C82 74.7593 80.0799 77.8466 77.0799 79.3703L52.8797 91.5193C49.9197 93.0028 46.4397 90.8778 46.4397 87.5498V76.0824M82 48.4565C82 45.1285 78.5199 43.0034 75.5599 44.4869L51.3598 56.6359C48.3598 58.1596 46.4397 61.247 46.4397 64.6151V76.0824M46.4397 76.0824L71 64.6151" stroke="#FEC775" stroke-width="8" stroke-linecap="round" stroke-linejoin="round"/>
<path d="M82 71.3912C82 74.7593 80.0799 77.8466 77.0799 79.3703L52.8797 91.5193C49.9197 93.0028 46.4397 90.8778 46.4397 87.5498V76.0824M82 48.4565C82 45.1285 78.5199 43.0034 75.5599 44.4869L51.3598 56.6359C48.3598 58.1596 46.4397 61.247 46.4397 64.6151V76.0824M46.4397 76.0824L71 64.6151" stroke="url(#paint6_linear_293_8927)" stroke-opacity="0.2" stroke-width="8" stroke-linecap="round" stroke-linejoin="round"/>
</g>
<path d="M82 71.3912C82 74.7593 80.0799 77.8466 77.0799 79.3703L52.8797 91.5193C49.9197 93.0028 46.4397 90.8778 46.4397 87.5498V76.0824M82 48.4565C82 45.1285 78.5199 43.0034 75.5599 44.4869L51.3598 56.6359C48.3598 58.1596 46.4397 61.247 46.4397 64.6151V76.0824M46.4397 76.0824L71 64.6151" stroke="white" stroke-width="10" stroke-linecap="round" stroke-linejoin="round"/>
<path d="M82 71.3912C82 74.7593 80.0799 77.8466 77.0799 79.3703L52.8797 91.5193C49.9197 93.0028 46.4397 90.8778 46.4397 87.5498V76.0824M82 48.4565C82 45.1285 78.5199 43.0034 75.5599 44.4869L51.3598 56.6359C48.3598 58.1596 46.4397 61.247 46.4397 64.6151V76.0824M46.4397 76.0824L71 64.6151" stroke="#FEC775" stroke-width="8" stroke-linecap="round" stroke-linejoin="round"/>
<path d="M82 71.3912C82 74.7593 80.0799 77.8466 77.0799 79.3703L52.8797 91.5193C49.9197 93.0028 46.4397 90.8778 46.4397 87.5498V76.0824M82 48.4565C82 45.1285 78.5199 43.0034 75.5599 44.4869L51.3598 56.6359C48.3598 58.1596 46.4397 61.247 46.4397 64.6151V76.0824M46.4397 76.0824L71 64.6151" stroke="url(#paint7_linear_293_8927)" stroke-opacity="0.2" stroke-width="8" stroke-linecap="round" stroke-linejoin="round"/>
<path d="M58.7004 19.969L71.7204 27.0058C74.7604 28.6497 74.7604 33.341 71.7204 34.9849L45.6803 49.0584C43.3603 50.3014 40.6402 50.3014 38.3202 49.0584L12.2801 34.9849C9.24007 33.341 9.24007 28.6497 12.2801 27.0058L25.3001 19.969M8.43998 44.4868L32.6402 56.6358C35.6402 58.1595 37.5603 61.2469 37.5603 64.615V87.5497C37.5603 90.8777 34.0802 93.0027 31.1202 91.5192L6.92007 79.3702C3.92006 77.8465 2 74.7592 2 71.3912V48.4564C2 46.8421 2.81885 45.5108 4 44.7371C5.25379 43.9158 6.91582 43.7229 8.43998 44.4868Z" stroke="url(#paint8_linear_293_8927)" stroke-width="4" stroke-linecap="round" stroke-linejoin="round"/>
<g filter="url(#filter1_f_293_8927)">
<path fill-rule="evenodd" clip-rule="evenodd" d="M42.5006 4C43.4565 4 44.2314 4.72997 44.2314 5.63043V6.96433H44.4231C47.6418 6.96433 50 9.60037 50 12.5473C50 13.4478 49.2251 14.1778 48.2692 14.1778C47.3134 14.1778 46.5385 13.4478 46.5385 12.5473C46.5385 11.1284 45.4527 10.2252 44.4231 10.2252H44.2314V15.3581L46.5682 16.1586C48.6918 16.886 50 18.8644 50 20.9596C50 23.6265 47.8627 26.0355 44.9165 26.0355H44.2314V27.3696C44.2314 28.27 43.4565 29 42.5006 29C41.5447 29 40.7698 28.27 40.7698 27.3696V26.0355H40.5769C37.3582 26.0355 35 23.3994 35 20.4525C35 19.552 35.7749 18.822 36.7308 18.822C37.6866 18.822 38.4615 19.552 38.4615 20.4525C38.4615 21.8714 39.5473 22.7746 40.5769 22.7746H40.7698V17.6421L38.4318 16.8412C36.3083 16.1138 35 14.1354 35 12.0403C35 9.37334 37.1373 6.96433 40.0835 6.96433H40.7698V5.63043C40.7698 4.72997 41.5447 4 42.5006 4ZM40.7698 10.2252H40.0835C39.3264 10.2252 38.4615 10.9014 38.4615 12.0403C38.4615 12.9111 39.0002 13.5661 39.6147 13.7767L40.7698 14.1723V10.2252ZM44.2314 18.8279V22.7746H44.9165C45.6736 22.7746 46.5385 22.0984 46.5385 20.9596C46.5385 20.0887 45.9998 19.4337 45.3853 19.2232L44.2314 18.8279Z" fill="#FFCB77"/>
<path fill-rule="evenodd" clip-rule="evenodd" d="M42.5006 4C43.4565 4 44.2314 4.72997 44.2314 5.63043V6.96433H44.4231C47.6418 6.96433 50 9.60037 50 12.5473C50 13.4478 49.2251 14.1778 48.2692 14.1778C47.3134 14.1778 46.5385 13.4478 46.5385 12.5473C46.5385 11.1284 45.4527 10.2252 44.4231 10.2252H44.2314V15.3581L46.5682 16.1586C48.6918 16.886 50 18.8644 50 20.9596C50 23.6265 47.8627 26.0355 44.9165 26.0355H44.2314V27.3696C44.2314 28.27 43.4565 29 42.5006 29C41.5447 29 40.7698 28.27 40.7698 27.3696V26.0355H40.5769C37.3582 26.0355 35 23.3994 35 20.4525C35 19.552 35.7749 18.822 36.7308 18.822C37.6866 18.822 38.4615 19.552 38.4615 20.4525C38.4615 21.8714 39.5473 22.7746 40.5769 22.7746H40.7698V17.6421L38.4318 16.8412C36.3083 16.1138 35 14.1354 35 12.0403C35 9.37334 37.1373 6.96433 40.0835 6.96433H40.7698V5.63043C40.7698 4.72997 41.5447 4 42.5006 4ZM40.7698 10.2252H40.0835C39.3264 10.2252 38.4615 10.9014 38.4615 12.0403C38.4615 12.9111 39.0002 13.5661 39.6147 13.7767L40.7698 14.1723V10.2252ZM44.2314 18.8279V22.7746H44.9165C45.6736 22.7746 46.5385 22.0984 46.5385 20.9596C46.5385 20.0887 45.9998 19.4337 45.3853 19.2232L44.2314 18.8279Z" fill="url(#paint9_linear_293_8927)" fill-opacity="0.25"/>
</g>
<path d="M44.7314 5.63043C44.7314 4.42612 43.7041 3.5 42.5006 3.5C41.2971 3.5 40.2698 4.42612 40.2698 5.63043V6.46433H40.0835C36.8444 6.46433 34.5 9.11429 34.5 12.0403C34.5 14.3407 35.9362 16.5148 38.2698 17.3142L40.2698 17.9994V22.2383C39.6095 22.0839 38.9615 21.4443 38.9615 20.4525C38.9615 19.2482 37.9342 18.322 36.7308 18.322C35.5273 18.322 34.5 19.2482 34.5 20.4525C34.5 23.5646 36.917 26.3661 40.2698 26.5281V27.3696C40.2698 28.5739 41.2971 29.5 42.5006 29.5C43.7041 29.5 44.7314 28.5739 44.7314 27.3696V26.5355H44.9165C48.1556 26.5355 50.5 23.8855 50.5 20.9596C50.5 18.6591 49.0638 16.485 46.7302 15.6856L44.7314 15.0009V10.7618C45.3914 10.9167 46.0385 11.5561 46.0385 12.5473C46.0385 13.7517 47.0658 14.6778 48.2692 14.6778C49.4727 14.6778 50.5 13.7517 50.5 12.5473C50.5 9.43555 48.0835 6.63438 44.7314 6.47178V5.63043ZM40.0835 10.7252H40.2698V13.4725L39.7768 13.3036C39.368 13.1636 38.9615 12.7013 38.9615 12.0403C38.9615 11.1767 39.6034 10.7252 40.0835 10.7252ZM44.9165 22.2746H44.7314V19.5277L45.2232 19.6962C45.632 19.8362 46.0385 20.2985 46.0385 20.9596C46.0385 21.8231 45.3966 22.2746 44.9165 22.2746Z" fill="#FFCB77"/>
<path d="M44.7314 5.63043C44.7314 4.42612 43.7041 3.5 42.5006 3.5C41.2971 3.5 40.2698 4.42612 40.2698 5.63043V6.46433H40.0835C36.8444 6.46433 34.5 9.11429 34.5 12.0403C34.5 14.3407 35.9362 16.5148 38.2698 17.3142L40.2698 17.9994V22.2383C39.6095 22.0839 38.9615 21.4443 38.9615 20.4525C38.9615 19.2482 37.9342 18.322 36.7308 18.322C35.5273 18.322 34.5 19.2482 34.5 20.4525C34.5 23.5646 36.917 26.3661 40.2698 26.5281V27.3696C40.2698 28.5739 41.2971 29.5 42.5006 29.5C43.7041 29.5 44.7314 28.5739 44.7314 27.3696V26.5355H44.9165C48.1556 26.5355 50.5 23.8855 50.5 20.9596C50.5 18.6591 49.0638 16.485 46.7302 15.6856L44.7314 15.0009V10.7618C45.3914 10.9167 46.0385 11.5561 46.0385 12.5473C46.0385 13.7517 47.0658 14.6778 48.2692 14.6778C49.4727 14.6778 50.5 13.7517 50.5 12.5473C50.5 9.43555 48.0835 6.63438 44.7314 6.47178V5.63043ZM40.0835 10.7252H40.2698V13.4725L39.7768 13.3036C39.368 13.1636 38.9615 12.7013 38.9615 12.0403C38.9615 11.1767 39.6034 10.7252 40.0835 10.7252ZM44.9165 22.2746H44.7314V19.5277L45.2232 19.6962C45.632 19.8362 46.0385 20.2985 46.0385 20.9596C46.0385 21.8231 45.3966 22.2746 44.9165 22.2746Z" fill="url(#paint10_linear_293_8927)" fill-opacity="0.25"/>
<path d="M44.7314 5.63043C44.7314 4.42612 43.7041 3.5 42.5006 3.5C41.2971 3.5 40.2698 4.42612 40.2698 5.63043V6.46433H40.0835C36.8444 6.46433 34.5 9.11429 34.5 12.0403C34.5 14.3407 35.9362 16.5148 38.2698 17.3142L40.2698 17.9994V22.2383C39.6095 22.0839 38.9615 21.4443 38.9615 20.4525C38.9615 19.2482 37.9342 18.322 36.7308 18.322C35.5273 18.322 34.5 19.2482 34.5 20.4525C34.5 23.5646 36.917 26.3661 40.2698 26.5281V27.3696C40.2698 28.5739 41.2971 29.5 42.5006 29.5C43.7041 29.5 44.7314 28.5739 44.7314 27.3696V26.5355H44.9165C48.1556 26.5355 50.5 23.8855 50.5 20.9596C50.5 18.6591 49.0638 16.485 46.7302 15.6856L44.7314 15.0009V10.7618C45.3914 10.9167 46.0385 11.5561 46.0385 12.5473C46.0385 13.7517 47.0658 14.6778 48.2692 14.6778C49.4727 14.6778 50.5 13.7517 50.5 12.5473C50.5 9.43555 48.0835 6.63438 44.7314 6.47178V5.63043ZM40.0835 10.7252H40.2698V13.4725L39.7768 13.3036C39.368 13.1636 38.9615 12.7013 38.9615 12.0403C38.9615 11.1767 39.6034 10.7252 40.0835 10.7252ZM44.9165 22.2746H44.7314V19.5277L45.2232 19.6962C45.632 19.8362 46.0385 20.2985 46.0385 20.9596C46.0385 21.8231 45.3966 22.2746 44.9165 22.2746Z" stroke="white" stroke-linecap="round" stroke-linejoin="round"/>
<defs>
<filter id="filter0_f_293_8927" x="38.4397" y="36.0024" width="51.5603" height="64.0013" filterUnits="userSpaceOnUse" color-interpolation-filters="sRGB">
<feFlood flood-opacity="0" result="BackgroundImageFix"/>
<feBlend mode="normal" in="SourceGraphic" in2="BackgroundImageFix" result="shape"/>
<feGaussianBlur stdDeviation="2" result="effect1_foregroundBlur_293_8927"/>
</filter>
<filter id="filter1_f_293_8927" x="31" y="0" width="23" height="33" filterUnits="userSpaceOnUse" color-interpolation-filters="sRGB">
<feFlood flood-opacity="0" result="BackgroundImageFix"/>
<feBlend mode="normal" in="SourceGraphic" in2="BackgroundImageFix" result="shape"/>
<feGaussianBlur stdDeviation="2" result="effect1_foregroundBlur_293_8927"/>
</filter>
<linearGradient id="paint0_linear_293_8927" x1="5.5" y1="47" x2="5.5" y2="76" gradientUnits="userSpaceOnUse">
<stop stop-color="#88CEF0"/>
<stop offset="1" stop-color="#2889B9"/>
</linearGradient>
<linearGradient id="paint1_linear_293_8927" x1="12.5" y1="48" x2="12.5" y2="80" gradientUnits="userSpaceOnUse">
<stop stop-color="#88CEF0"/>
<stop offset="1" stop-color="#2889B9"/>
</linearGradient>
<linearGradient id="paint2_linear_293_8927" x1="17.5" y1="51" x2="17.5" y2="83" gradientUnits="userSpaceOnUse">
<stop stop-color="#88CEF0"/>
<stop offset="1" stop-color="#2889B9"/>
</linearGradient>
<linearGradient id="paint3_linear_293_8927" x1="24.5" y1="55" x2="24.5" y2="85" gradientUnits="userSpaceOnUse">
<stop stop-color="#88CEF0"/>
<stop offset="1" stop-color="#2889B9"/>
</linearGradient>
<linearGradient id="paint4_linear_293_8927" x1="27.5" y1="55" x2="27.5" y2="87" gradientUnits="userSpaceOnUse">
<stop stop-color="#88CEF0"/>
<stop offset="1" stop-color="#2889B9"/>
</linearGradient>
<linearGradient id="paint5_linear_293_8927" x1="33.5" y1="60" x2="33.5" y2="89" gradientUnits="userSpaceOnUse">
<stop stop-color="#88CEF0"/>
<stop offset="1" stop-color="#2889B9"/>
</linearGradient>
<linearGradient id="paint6_linear_293_8927" x1="64.2198" y1="44.0061" x2="64.2198" y2="92.0001" gradientUnits="userSpaceOnUse">
<stop stop-color="#FEC574"/>
<stop offset="1" stop-color="#D00000"/>
</linearGradient>
<linearGradient id="paint7_linear_293_8927" x1="64.2198" y1="44.0061" x2="64.2198" y2="92.0001" gradientUnits="userSpaceOnUse">
<stop stop-color="#FEC574"/>
<stop offset="1" stop-color="#D00000"/>
</linearGradient>
<linearGradient id="paint8_linear_293_8927" x1="38.0002" y1="19.969" x2="38.0002" y2="92" gradientUnits="userSpaceOnUse">
<stop stop-color="#C6FDFF"/>
<stop offset="0.9999" stop-color="#329DCE"/>
</linearGradient>
<linearGradient id="paint9_linear_293_8927" x1="42.5" y1="4" x2="42.5" y2="29" gradientUnits="userSpaceOnUse">
<stop stop-color="#FFCB77"/>
<stop offset="0.815" stop-color="#D00000"/>
</linearGradient>
<linearGradient id="paint10_linear_293_8927" x1="42.5" y1="4" x2="42.5" y2="29" gradientUnits="userSpaceOnUse">
<stop stop-color="#FFCB77"/>
<stop offset="0.815" stop-color="#D00000"/>
</linearGradient>
</defs>
</svg>
