<svg width="29" height="29" viewBox="0 0 29 29" fill="none" xmlns="http://www.w3.org/2000/svg">
<path d="M25.875 11.332C25.875 10.6416 25.3153 10.082 24.625 10.082C23.9346 10.082 23.375 10.6416 23.375 11.332H25.875ZM5.62499 11.332C5.62499 10.6416 5.06534 10.082 4.37499 10.082C3.68463 10.082 3.12499 10.6416 3.12499 11.332H5.62499ZM17.9906 26.5932L17.7032 25.3767L17.7032 25.3767L17.9906 26.5932ZM11.0093 26.5932L11.2967 25.3767L11.2967 25.3767L11.0093 26.5932ZM18.4284 4.79754L17.5414 5.67828L17.5414 5.67828L18.4284 4.79754ZM26.113 14.3109C26.5994 14.8008 27.3909 14.8036 27.8807 14.3172C28.3706 13.8307 28.3734 13.0393 27.887 12.5494L26.113 14.3109ZM10.5716 4.79754L11.4586 5.67828L11.4586 5.67828L10.5716 4.79754ZM1.11299 12.5494C0.626567 13.0393 0.629372 13.8307 1.11925 14.3172C1.60914 14.8036 2.40059 14.8008 2.88701 14.3109L1.11299 12.5494ZM11.3311 23.2782L10.1026 23.0476L10.1026 23.0476L11.3311 23.2782ZM11.358 23.1351L12.5865 23.3657L12.5865 23.3657L11.358 23.1351ZM17.642 23.1351L16.4135 23.3657L16.4135 23.3657L17.642 23.1351ZM17.6689 23.2782L18.8974 23.0476L18.8974 23.0476L17.6689 23.2782ZM17.2664 26.3776L16.1376 25.8405L16.1376 25.8405L17.2664 26.3776ZM15.9755 26.1813C15.6788 26.8047 15.9437 27.5505 16.567 27.8472C17.1904 28.1438 17.9362 27.879 18.2329 27.2556L15.9755 26.1813ZM11.7336 26.3776L10.6049 26.9148L10.6049 26.9148L11.7336 26.3776ZM10.7671 27.2556C11.0638 27.879 11.8096 28.1438 12.433 27.8471C13.0563 27.5505 13.3212 26.8047 13.0245 26.1813L10.7671 27.2556ZM13.6126 20.6702L13.2784 19.4657L13.2784 19.4657L13.6126 20.6702ZM15.3874 20.6702L15.7216 19.4657L15.7216 19.4657L15.3874 20.6702ZM24.625 11.332H23.375V18.163H24.625H25.875V11.332H24.625ZM4.37499 18.163H5.62499V11.332H4.37499H3.12499V18.163H4.37499ZM17.9906 26.5932L17.7032 25.3767C15.5963 25.8744 13.4037 25.8744 11.2967 25.3767L11.0093 26.5932L10.722 27.8097C13.2069 28.3968 15.7931 28.3968 18.278 27.8097L17.9906 26.5932ZM11.0093 26.5932L11.2967 25.3767C7.97978 24.5931 5.62499 21.6095 5.62499 18.163H4.37499H3.12499C3.12499 22.7575 6.26579 26.757 10.722 27.8097L11.0093 26.5932ZM17.9906 26.5932L18.278 27.8097C22.7342 26.757 25.875 22.7575 25.875 18.163H24.625H23.375C23.375 21.6095 21.0202 24.5931 17.7032 25.3767L17.9906 26.5932ZM18.4284 4.79754L17.5414 5.67828L26.113 14.3109L27 13.4301L27.887 12.5494L19.3154 3.91679L18.4284 4.79754ZM10.5716 4.79754L9.68462 3.91679L1.11299 12.5494L2 13.4301L2.88701 14.3109L11.4586 5.67828L10.5716 4.79754ZM18.4284 4.79754L19.3154 3.91679C18.4144 3.00942 17.6518 2.23764 16.9628 1.70821C16.2454 1.1569 15.4612 0.75 14.5 0.75V2V3.25C14.6894 3.25 14.9435 3.30936 15.4396 3.69056C15.9642 4.09364 16.5905 4.72063 17.5414 5.67828L18.4284 4.79754ZM10.5716 4.79754L11.4586 5.67828C12.4095 4.72063 13.0358 4.09364 13.5604 3.69056C14.0565 3.30936 14.3106 3.25 14.5 3.25V2V0.75C13.5388 0.75 12.7546 1.1569 12.0372 1.70821C11.3482 2.23764 10.5856 3.00942 9.68462 3.91679L10.5716 4.79754ZM11.3311 23.2782L12.5597 23.5088L12.5865 23.3657L11.358 23.1351L10.1295 22.9045L10.1026 23.0476L11.3311 23.2782ZM17.642 23.1351L16.4135 23.3657L16.4403 23.5088L17.6689 23.2782L18.8974 23.0476L18.8705 22.9045L17.642 23.1351ZM17.2664 26.3776L16.1376 25.8405L15.9755 26.1813L17.1042 26.7184L18.2329 27.2556L18.3951 26.9148L17.2664 26.3776ZM11.7336 26.3776L10.6049 26.9148L10.7671 27.2556L11.8958 26.7184L13.0245 26.1813L12.8624 25.8405L11.7336 26.3776ZM17.6689 23.2782L16.4403 23.5088C16.5886 24.299 16.4824 25.1161 16.1376 25.8405L17.2664 26.3776L18.3951 26.9148C18.9674 25.712 19.1432 24.3573 18.8974 23.0476L17.6689 23.2782ZM11.3311 23.2782L10.1026 23.0476C9.85676 24.3573 10.0326 25.712 10.6049 26.9148L11.7336 26.3776L12.8624 25.8405C12.5176 25.1161 12.4114 24.299 12.5597 23.5088L11.3311 23.2782ZM13.6126 20.6702L13.9468 21.8747C14.3089 21.7742 14.6911 21.7742 15.0532 21.8747L15.3874 20.6702L15.7216 19.4657C14.9222 19.2439 14.0778 19.2439 13.2784 19.4657L13.6126 20.6702ZM17.642 23.1351L18.8705 22.9045C18.5604 21.2521 17.3418 19.9153 15.7216 19.4657L15.3874 20.6702L15.0532 21.8747C15.747 22.0672 16.2778 22.6429 16.4135 23.3657L17.642 23.1351ZM11.358 23.1351L12.5865 23.3657C12.7222 22.6429 13.253 22.0672 13.9468 21.8747L13.6126 20.6702L13.2784 19.4657C11.6582 19.9153 10.4396 21.2521 10.1295 22.9045L11.358 23.1351Z" fill="#8B8B8B"/>
</svg>
