<svg width="27" height="28" viewBox="0 0 27 28" fill="none" xmlns="http://www.w3.org/2000/svg">
<path d="M20.7685 9.45346V4.18944C20.7685 3.07833 20.3271 2.01273 19.5414 1.22706C18.7557 0.441386 17.6901 0 16.579 0L10.2949 0C9.18378 0 8.11818 0.441386 7.33251 1.22706C6.54684 2.01273 6.10546 3.07833 6.10546 4.18944V9.45346C5.45736 9.93719 4.93071 10.5651 4.56715 11.2875C4.20359 12.0099 4.0131 12.8069 4.01074 13.6157V15.7104C4.01074 18.2104 5.00386 20.608 6.77162 22.3757C8.53938 24.1435 10.937 25.1366 13.437 25.1366C15.9369 25.1366 18.3345 24.1435 20.1023 22.3757C21.8701 20.608 22.8632 18.2104 22.8632 15.7104V13.6157C22.8608 12.8069 22.6703 12.0099 22.3068 11.2875C21.9432 10.5651 21.4166 9.93719 20.7685 9.45346ZM8.20017 8.37887V4.18944C8.20017 3.63388 8.42087 3.10108 8.8137 2.70825C9.20654 2.31541 9.73934 2.09472 10.2949 2.09472H16.579C17.1346 2.09472 17.6674 2.31541 18.0602 2.70825C18.4531 3.10108 18.6737 3.63388 18.6737 4.18944V8.37887H8.20017ZM20.7685 15.7104C20.7685 17.6548 19.996 19.5196 18.6211 20.8945C17.2462 22.2695 15.3814 23.0419 13.437 23.0419C11.4925 23.0419 9.62773 22.2695 8.25281 20.8945C6.87788 19.5196 6.10546 17.6548 6.10546 15.7104V13.6157C6.10546 12.7823 6.4365 11.9831 7.02575 11.3939C7.615 10.8046 8.4142 10.4736 9.24753 10.4736H13.437H17.6264C18.4597 10.4736 19.2589 10.8046 19.8482 11.3939C20.4374 11.9831 20.7685 12.7823 20.7685 13.6157V15.7104Z" fill="#8B8B8B"/>
<path fill-rule="evenodd" clip-rule="evenodd" d="M4.01178 15.8504C4.01603 16.137 4.03333 16.4222 4.06334 16.7051C4.16066 17.6225 4.39167 18.5158 4.74509 19.358C4.8336 19.5689 4.92978 19.7766 5.03346 19.9806C5.47903 20.8575 6.06311 21.6672 6.77162 22.3757C7.12461 22.7287 7.50271 23.0508 7.90173 23.3403C7.99997 23.4116 8.09947 23.4809 8.20017 23.5481C8.53662 23.7729 8.88652 23.9754 9.24753 24.1545C9.38156 24.221 9.51713 24.2842 9.6541 24.3443C10.8356 24.8619 12.1221 25.1366 13.437 25.1366C14.7518 25.1366 16.0383 24.8619 17.2198 24.3443C17.3568 24.2842 17.4924 24.221 17.6264 24.1545C17.9874 23.9754 18.3373 23.7729 18.6737 23.5481C18.7745 23.4809 18.874 23.4116 18.9722 23.3403C19.3712 23.0508 19.7493 22.7287 20.1023 22.3757C20.8108 21.6672 21.3949 20.8575 21.8405 19.9806C21.9441 19.7766 22.0403 19.5689 22.1288 19.358C22.4822 18.5158 22.7133 17.6225 22.8106 16.7051C22.8406 16.4222 22.8579 16.137 22.8621 15.8504C22.7171 16.0067 22.5688 16.1606 22.4175 16.312C21.7823 16.9471 21.1025 17.5273 20.3853 18.0494C20.271 18.3889 20.132 18.7197 19.9693 19.0389C19.6344 19.6964 19.1992 20.3051 18.6737 20.8414C18.6563 20.8592 18.6388 20.8769 18.6211 20.8945C18.3127 21.203 17.9795 21.4811 17.6264 21.727C17.5737 21.7638 17.5205 21.7997 17.4669 21.835C17.1823 22.0223 16.8856 22.1891 16.579 22.3345C16.4615 22.3902 16.3426 22.4428 16.2223 22.4922C16.1235 22.5328 16.0239 22.5712 15.9234 22.6074C15.4576 22.7753 14.9743 22.8963 14.4806 22.9673C14.1369 23.0167 13.7883 23.0419 13.437 23.0419C13.0857 23.0419 12.737 23.0167 12.3933 22.9673C11.8996 22.8963 11.4163 22.7753 10.9505 22.6074C10.85 22.5712 10.7504 22.5328 10.6516 22.4922C10.5314 22.4428 10.4124 22.3902 10.2949 22.3345C9.98833 22.1891 9.6916 22.0223 9.40703 21.835C9.35343 21.7997 9.30026 21.7638 9.24753 21.727C8.89439 21.4811 8.56127 21.203 8.25281 20.8945C8.23516 20.8769 8.21762 20.8592 8.20017 20.8414C7.6747 20.3051 7.23957 19.6964 6.9046 19.0389C6.74193 18.7197 6.60288 18.3889 6.48858 18.0494C5.77143 17.5273 5.09159 16.9471 4.45645 16.312C4.30509 16.1606 4.15686 16.0067 4.01178 15.8504ZM6.10546 13.6645L4.01074 13.6706V13.6157H6.10546V13.6645ZM20.7685 13.6645L22.8632 13.6706V13.6157H20.7685V13.6645ZM8.20017 0.561266C7.88576 0.742778 7.59367 0.965897 7.33251 1.22706C6.64672 1.91285 6.22325 2.81191 6.12666 3.76836C6.11259 3.90766 6.10546 4.04818 6.10546 4.18944L6.10543 8.37887H8.20017V4.18944C8.20017 3.63388 8.42087 3.10108 8.8137 2.70825C8.94428 2.57767 9.09033 2.46611 9.24753 2.37535C9.2839 2.35436 9.32086 2.33448 9.35837 2.31573C9.60402 2.19295 9.873 2.11888 10.1504 2.09971C10.1983 2.09639 10.2465 2.09472 10.2949 2.09472H16.579C16.6274 2.09472 16.6756 2.09639 16.7236 2.09971C17.0009 2.11888 17.2699 2.19295 17.5156 2.31573C17.5531 2.33448 17.59 2.35436 17.6264 2.37535C17.7836 2.46611 17.9296 2.57767 18.0602 2.70825C18.4531 3.10108 18.6737 3.63388 18.6737 4.18944V8.37887H20.7685L20.7685 4.18944C20.7685 4.04818 20.7613 3.90766 20.7473 3.76836C20.6507 2.81191 20.2272 1.91285 19.5414 1.22706C19.2802 0.965897 18.9882 0.742777 18.6737 0.561265C18.3457 0.371863 17.9933 0.227764 17.6264 0.13302C17.2871 0.045408 16.9354 0 16.579 0H10.2949C9.93851 0 9.58681 0.045408 9.24753 0.13302C8.88063 0.227764 8.52825 0.371863 8.20017 0.561266Z" fill="#8B8B8B"/>
<path d="M11.3423 6.28368C11.9207 6.28368 12.3896 5.81476 12.3896 5.23632C12.3896 4.65788 11.9207 4.18896 11.3423 4.18896C10.7638 4.18896 10.2949 4.65788 10.2949 5.23632C10.2949 5.81476 10.7638 6.28368 11.3423 6.28368Z" fill="#8B8B8B"/>
<path fill-rule="evenodd" clip-rule="evenodd" d="M18.0874 22.3584C18.9158 22.3584 19.5874 23.03 19.5874 23.8584V26.3721C19.5874 27.2005 18.9158 27.8721 18.0874 27.8721C17.259 27.8721 16.5874 27.2005 16.5874 26.3721V23.8584C16.5874 23.03 17.259 22.3584 18.0874 22.3584Z" fill="#8B8B8B"/>
<path fill-rule="evenodd" clip-rule="evenodd" d="M9.03809 22.3584C9.86651 22.3584 10.5381 23.03 10.5381 23.8584V26.3721C10.5381 27.2005 9.86651 27.8721 9.03809 27.8721C8.20966 27.8721 7.53809 27.2005 7.53809 26.3721V23.8584C7.53809 23.03 8.20966 22.3584 9.03809 22.3584Z" fill="#8B8B8B"/>
<path d="M15.5317 6.28368C16.1102 6.28368 16.5791 5.81476 16.5791 5.23632C16.5791 4.65788 16.1102 4.18896 15.5317 4.18896C14.9533 4.18896 14.4844 4.65788 14.4844 5.23632C14.4844 5.81476 14.9533 6.28368 15.5317 6.28368Z" fill="#8B8B8B"/>
<path fill-rule="evenodd" clip-rule="evenodd" d="M25 11.0684C25.8284 11.0684 26.5 11.7399 26.5 12.5684V16.5902C26.5 17.4186 25.8284 18.0902 25 18.0902C24.1716 18.0902 23.5 17.4186 23.5 16.5902V12.5684C23.5 11.7399 24.1716 11.0684 25 11.0684Z" fill="#8B8B8B"/>
<path fill-rule="evenodd" clip-rule="evenodd" d="M2 11.0684C2.82843 11.0684 3.5 11.7399 3.5 12.5684V16.5902C3.5 17.4186 2.82843 18.0902 2 18.0902C1.17157 18.0902 0.5 17.4186 0.5 16.5902V12.5684C0.5 11.7399 1.17157 11.0684 2 11.0684Z" fill="#8B8B8B"/>
</svg>
