<svg width="23" height="23" viewBox="0 0 23 23" fill="none" xmlns="http://www.w3.org/2000/svg">
<path d="M19.06 19.1263H22M2.96 11.5L1 11.5514M2.96 11.5C2.96 13.0464 4.2136 14.3 5.76 14.3C7.30639 14.3 8.56 13.0464 8.56 11.5C8.56 9.9536 7.30639 8.7 5.76 8.7C4.2136 8.7 2.96 9.9536 2.96 11.5ZM9.36381 11.5515H22M12.4344 3.97644L1 3.97644M22 3.97644H19.06M1 19.1263H12.4344M18.36 19.2C18.36 20.7464 17.1064 22 15.56 22C14.0136 22 12.76 20.7464 12.76 19.2C12.76 17.6536 14.0136 16.4 15.56 16.4C17.1064 16.4 18.36 17.6536 18.36 19.2ZM18.36 3.8C18.36 5.3464 17.1064 6.6 15.56 6.6C14.0136 6.6 12.76 5.3464 12.76 3.8C12.76 2.2536 14.0136 1 15.56 1C17.1064 1 18.36 2.2536 18.36 3.8Z" stroke="#8B8B8B" stroke-width="2" stroke-linecap="round"/>
</svg>
